<svg xmlns="http://www.w3.org/2000/svg" xmlns:xlink="http://www.w3.org/1999/xlink" width="370" height="500.96404" viewBox="0 0 370 500.96404" role="img" artist="Katerina Limpitsouni" source="https://undraw.co/">
  <rect x="183.41555" y="120.48082" width="178.85181" height="21.0815" rx="10.54072" ry="10.54072" fill="#cacacb" stroke-width="0"/>
  <path d="m193.95628,174.88439h46.24297c5.82147,0,10.54074,4.71924,10.54074,10.54074h0c0,5.82147-4.71926,10.54074-10.54074,10.54074h-46.24297c-5.82147,0-10.54074-4.71926-10.54074-10.54074h0c0-5.82149,4.71926-10.54074,10.54074-10.54074Z" fill="#cacacb" stroke-width="0"/>
  <rect x="15.57035" y="434.9278" width="17.33074" height="17.33074" transform="translate(-219.48412 815.02675) rotate(-143.60147)" fill="#e8989b" stroke-width="0"/>
  <path d="m1.26842,454.23077c-.4811-1.84556-.33003-3.39896.44921-4.61711.89125-1.39336,2.60671-2.32862,5.09841-2.78003.34809-.40187,4.67889-5.36745,6.34404-5.60077.12749-.34272,1.01758-2.58171,2.72324-3.20421.80348-.2932,1.66335-.17545,2.55577.35001l.03885.02294-.00537.04477c-.00705.05851-.66748,5.88269,2.60876,8.8521,1.87833,1.7024,4.68082,2.15635,8.3303,1.34841.19456-.11502,2.78881-2.46355,4.4968-4.02488l.06829-.06243,11.81706,24.3645,8.97706,11.43476c1.12827,1.4372,1.15902,3.46808.07479,4.93877-.92451,1.25405-2.51106,1.87703-4.04186,1.58707l-7.4037-1.40233c-3.09362-.58594-6.0684-1.88326-8.60281-3.75168l-29.65215-21.86028c-1.92113-1.4163-3.29791-3.41916-3.87668-5.63964Z" fill="#090814" stroke-width="0"/>
  <rect x="170.48514" y="467.86863" width="17.33074" height="17.33074" transform="translate(358.30102 953.06801) rotate(-180)" fill="#e8989b" stroke-width="0"/>
  <path d="m166.97626,498.72506c-1.48239-1.20002-2.28258-2.54001-2.37821-3.98291-.10944-1.65039.71636-3.42114,2.45409-5.26306.04171-.53003.58104-7.09676,1.78288-8.27265-.10075-.35151-.71292-2.68187.29059-4.19506.47274-.71279,1.23473-1.12825,2.26486-1.23486l.04488-.00458.02224.03922c.02905.05128,2.95352,5.13111,7.35264,5.5771,2.52209.25568,5.04721-1.04192,7.50528-3.85784.08835-.20803.78288-3.63781,1.23116-5.90806l.01793-.09077,23.96951,12.59899,14.01109,3.87697c1.76098.4873,2.99086,2.10373,2.99086,3.93089,0,1.558-.90735,3.0009-2.31156,3.67588l-6.79144,3.2646c-2.83778,1.36412-6.00203,2.08513-9.15072,2.08513h-36.83914c-2.38677,0-4.68344-.79514-6.46692-2.23898Z" fill="#090814" stroke-width="0"/>
  <polygon points="82.20533 192.78653 165.26573 192.78653 192.95254 470.08809 165.26573 470.08809 122.58449 292.15122 109.89213 342.35483 39.9932 452.02411 12.46277 425.21586 71.82526 331.43731 82.20533 192.78653" fill="#090814" stroke-width="0"/>
  <path d="m107.15747,36.42918c0-15.56066,12.61435-28.17491,28.17459-28.17491,15.56066,0,28.17501,12.61425,28.17501,28.17491,0,12.61961-8.29742,23.30015-19.73358,26.88703l-5.44669,35.99619-27.76656-23.13887s5.99831-7.64043,9.21538-16.25555c-7.60306-5.04582-12.61814-13.68-12.61814-23.48879Z" fill="#e8989b" stroke-width="0"/>
  <path d="m120.55651,60.77612s-5.3722-27.18061,2.39238-23.94537c7.76458,3.23524,5.68689,8.70442,5.68689,8.70442h0l7.44105-10.99982v-12.61744s4.85286-5.49991,4.85286-5.49991l20.70554,8.73515s10.99982-32.3524-20.38202-21.99964c0,0-26.8525-10.99982-34.61707,8.0881-18.40833,42.99913,13.92037,49.5345,13.92037,49.5345Z" fill="#090814" stroke-width="0"/>
  <path d="m82.49006,194.61534l73.63261.32653c6.13023.3094,11.18582-3.33365,10.60446-7.64156l-13.95344-103.39527-24.9515-13.07776c-5.264-2.75901-11.71451-1.73838-15.86962,2.51097l-14.78625,15.1216c-3.8783,3.96626-6.37022,8.5218-7.27253,13.29508l-6.90313,68.45231c-.45366,2.39992-.06452,4.84155,1.13334,7.11098l2.7081,5.13068c2.87055,5.43846-12.56117,11.75162-4.34202,12.16645Z" fill="#a5a58d" stroke-width="0"/>
  <path d="m171.79858,206.92038l-22.8142-15.01341,8.76583-13.32045,22.8142,15.01341c3.9617-.88107,8.60834-.06178,12.67266,2.61283,7.1115,4.67989,9.73677,13.24463,5.86377,19.13-3.873,5.88537-12.7776,6.86261-19.8891,2.18273-4.06432-2.67462-6.65497-6.61816-7.41316-10.60511Z" fill="#e8989b" stroke-width="0"/>
  <polyline points="102.92622 119.33109 110.08875 176.12246 156.78206 205.20514 177.92711 184.44009 132.45524 159.80379 139.28807 92.80136" fill="#a5a58d" stroke-width="0"/>
</svg>
